<svg width="130" height="39" viewBox="0 0 130 39" fill="none" xmlns="http://www.w3.org/2000/svg"><path d="M128.183 33.7202C128.183 34.2014 128.089 34.6778 127.904 35.1224C127.72 35.5669 127.45 35.9708 127.109 36.3109C126.769 36.6509 126.364 36.9206 125.92 37.1044C125.475 37.2882 124.998 37.3825 124.517 37.382H4.52303C3.55048 37.3831 2.61734 36.9979 1.92883 36.3111C1.24033 35.6244 0.85283 34.6924 0.851562 33.7202V4.51775C0.852829 3.54501 1.24017 2.61254 1.92854 1.92507C2.61691 1.2376 3.55004 0.851327 4.52303 0.851074H124.516C124.997 0.851074 125.474 0.945922 125.919 1.1302C126.364 1.31448 126.768 1.58458 127.109 1.92508C127.449 2.26557 127.719 2.66979 127.904 3.11464C128.088 3.5595 128.183 4.03628 128.182 4.51775L128.183 33.7202Z" fill="white"/><path d="M124.516 38.2338H4.52263C3.32456 38.2335 2.17551 37.7582 1.32763 36.9119C0.479746 36.0657 0.00227961 34.9178 0 33.72L0 4.51857C0.00177238 3.32021 0.478923 2.17149 1.32678 1.3244C2.17464 0.477307 3.32396 0.00101145 4.52263 0L124.515 0C125.714 0.00151614 126.863 0.477974 127.711 1.32496C128.558 2.17194 129.036 3.32037 129.038 4.51857V33.72C129.04 36.2097 127.008 38.2338 124.516 38.2338V38.2338Z" fill="#A6A6A6"/><path d="M128.183 33.7202C128.183 34.2014 128.089 34.6778 127.904 35.1224C127.72 35.5669 127.45 35.9708 127.109 36.3109C126.769 36.6509 126.364 36.9206 125.92 37.1044C125.475 37.2882 124.998 37.3825 124.517 37.382H4.52303C3.55048 37.3831 2.61734 36.9979 1.92883 36.3111C1.24033 35.6244 0.85283 34.6924 0.851562 33.7202V4.51775C0.852829 3.54501 1.24017 2.61254 1.92854 1.92507C2.61691 1.2376 3.55004 0.851327 4.52303 0.851074H124.516C124.997 0.851074 125.474 0.945922 125.919 1.1302C126.364 1.31448 126.768 1.58458 127.109 1.92508C127.449 2.26557 127.719 2.66979 127.904 3.11464C128.088 3.5595 128.183 4.03628 128.182 4.51775L128.183 33.7202Z" fill="black"/><path d="M28.8139 18.9156C28.7862 15.8341 31.3378 14.3349 31.4545 14.2651C30.0094 12.1588 27.7696 11.871 26.9825 11.8481C25.1013 11.6501 23.2766 12.9734 22.3183 12.9734C21.3409 12.9734 19.8653 11.8672 18.2748 11.8997C16.2282 11.9312 14.3136 13.1159 13.2635 14.9554C11.0964 18.7062 12.7126 24.2182 14.7889 27.25C15.8275 28.7358 17.0411 30.3927 18.6297 30.3344C20.1837 30.2713 20.7643 29.3448 22.6397 29.3448C24.4979 29.3448 25.043 30.3344 26.6631 30.2971C28.331 30.2713 29.3811 28.8056 30.3833 27.3074C31.5836 25.6065 32.0656 23.9294 32.0847 23.8434C32.0464 23.83 28.8465 22.6081 28.8139 18.9156V18.9156ZM25.7536 9.85362C26.5894 8.80859 27.1614 7.38686 27.0026 5.94409C25.7928 5.99763 24.2798 6.78069 23.4086 7.80277C22.6378 8.70342 21.9492 10.1796 22.1271 11.5679C23.4861 11.6693 24.8814 10.8824 25.7536 9.85362V9.85362Z" fill="white"/><path d="M124.516 0H60.2441L85.4184 38.2338H124.516C125.715 38.2328 126.864 37.7568 127.712 36.9101C128.559 36.0634 129.037 34.9152 129.039 33.7171V4.51857C129.037 3.32029 128.56 2.17172 127.712 1.32468C126.864 0.47764 125.715 0.0012639 124.516 0V0Z" fill="url(#paint0_linear_3199_4841)"/><path d="M51.3228 30.1212H49.1509L47.9612 26.3838H43.8259L42.6926 30.1212H40.5781L44.6761 17.3973H47.2067L51.3228 30.1212V30.1212ZM47.6026 24.8158L46.5267 21.4933C46.4129 21.1539 46.1987 20.3546 45.885 19.0963H45.8467C45.7205 19.6375 45.5187 20.4368 45.2423 21.4933L44.1846 24.8158H47.6026ZM61.8409 25.421C61.8409 26.9814 61.4172 28.2147 60.5689 29.1202C59.8096 29.9262 58.8657 30.3287 57.74 30.3287C56.5245 30.3287 55.6504 29.8956 55.1196 29.0274V33.8414H53.0806V23.962C53.0806 22.982 53.0548 21.9771 53.0051 20.9464H54.7983L54.9121 22.4007H54.9503C55.6303 21.305 56.6622 20.7571 58.047 20.7571C59.1296 20.7571 60.0334 21.1845 60.7564 22.0402C61.4784 22.8978 61.8409 24.0241 61.8409 25.421ZM59.7637 25.4956C59.7637 24.6026 59.5629 23.8664 59.1593 23.286C58.7184 22.6827 58.1264 22.3806 57.3843 22.3806C56.8812 22.3806 56.4241 22.5488 56.0157 22.8806C55.6064 23.2153 55.3386 23.6522 55.2133 24.1934C55.1574 24.3957 55.1256 24.604 55.1186 24.8139V26.3446C55.1186 27.011 55.3233 27.5741 55.7326 28.035C56.1419 28.4939 56.6737 28.7243 57.3278 28.7243C58.0958 28.7243 58.6935 28.427 59.121 27.8371C59.5495 27.2452 59.7637 26.4651 59.7637 25.4956V25.4956ZM72.3963 25.421C72.3963 26.9814 71.9726 28.2147 71.1243 29.1202C70.364 29.9262 69.421 30.3287 68.2944 30.3287C67.0789 30.3287 66.2048 29.8956 65.674 29.0274V33.8414H63.635V23.962C63.635 22.982 63.6092 21.9771 63.5595 20.9464H65.3527L65.4665 22.4007H65.5047C66.1837 21.305 67.2157 20.7571 68.6014 20.7571C69.6831 20.7571 70.5868 21.1845 71.3118 22.0402C72.0328 22.8978 72.3963 24.0241 72.3963 25.421V25.421ZM70.3181 25.4956C70.3181 24.6026 70.1163 23.8664 69.7127 23.286C69.2718 22.6827 68.6818 22.3806 67.9396 22.3806C67.4366 22.3806 66.9794 22.5488 66.5692 22.8806C66.1598 23.2153 65.893 23.6522 65.7677 24.1934C65.7056 24.4458 65.6721 24.6513 65.6721 24.8139V26.3446C65.6721 27.011 65.8777 27.5741 66.2851 28.035C66.6944 28.493 67.2262 28.7243 67.8822 28.7243C68.6512 28.7243 69.2489 28.427 69.6754 27.8371C70.1039 27.2452 70.3181 26.4651 70.3181 25.4956V25.4956ZM84.1978 26.5521C84.1978 27.6353 83.819 28.5159 83.0664 29.1957C82.2382 29.9376 81.0819 30.3096 79.5996 30.3096C78.2301 30.3096 77.1322 30.0457 76.304 29.517L76.7754 27.818C77.6696 28.3476 78.6518 28.6115 79.721 28.6115C80.4899 28.6115 81.0877 28.4375 81.5142 28.0924C81.9417 27.7462 82.1578 27.2835 82.1578 26.706C82.1578 26.1887 81.979 25.7556 81.628 25.4028C81.2751 25.051 80.6917 24.723 79.8721 24.4219C77.6438 23.591 76.5287 22.3758 76.5287 20.7772C76.5287 19.7331 76.9227 18.8783 77.7088 18.21C78.495 17.5427 79.5374 17.209 80.8342 17.209C81.9924 17.209 82.9574 17.4107 83.7234 17.8132L83.2118 19.475C82.4907 19.0849 81.6768 18.8898 80.7663 18.8898C80.0472 18.8898 79.4829 19.0667 79.0793 19.4185C78.7398 19.7331 78.5677 20.1165 78.5677 20.5716C78.5677 21.0736 78.7637 21.4904 79.1539 21.8174C79.4925 22.1186 80.1103 22.4465 81.0035 22.7984C82.0995 23.2401 82.9048 23.7545 83.4202 24.3454C83.9395 24.9362 84.1978 25.6734 84.1978 26.5521ZM90.9564 22.4762H88.7089V26.9307C88.7089 28.0637 89.1048 28.6287 89.8986 28.6287C90.263 28.6287 90.5652 28.5981 90.8043 28.5341L90.8607 30.082C90.4591 30.2321 89.9302 30.3077 89.2751 30.3077C88.4698 30.3077 87.8405 30.0619 87.3863 29.5705C86.9339 29.0791 86.7063 28.2559 86.7063 27.0971V22.4724H85.3674V20.9426H86.7063V19.2627L88.7089 18.6584V20.9426H90.9564V22.4762V22.4762ZM101.077 25.4583C101.077 26.8685 100.673 28.0264 99.8677 28.9318C99.0252 29.864 97.9043 30.3287 96.5071 30.3287C95.1586 30.3287 94.0865 29.8822 93.287 28.9901C92.4875 28.0962 92.0877 26.9699 92.0877 25.6113C92.0877 24.1895 92.5009 23.025 93.3243 22.1196C94.1497 21.2132 95.2609 20.76 96.6582 20.76C98.0047 20.76 99.0864 21.2074 99.905 22.1004C100.687 22.9667 101.077 24.0853 101.077 25.4583ZM98.963 25.5051C98.963 24.6647 98.7813 23.9438 98.4169 23.3405C97.9894 22.6119 97.3774 22.2477 96.5845 22.2477C95.7678 22.2477 95.1414 22.6119 94.7149 23.3405C94.3495 23.9438 94.1678 24.6771 94.1678 25.5434C94.1678 26.3848 94.3495 27.1076 94.7149 27.709C95.1558 28.4375 95.7707 28.8018 96.5673 28.8018C97.3468 28.8018 97.9579 28.4299 98.3997 27.6908C98.7746 27.0731 98.963 26.3475 98.963 25.5051ZM107.707 22.7391C107.495 22.7008 107.28 22.682 107.064 22.6827C106.347 22.6827 105.792 22.9523 105.402 23.4954C105.064 23.9734 104.893 24.5777 104.893 25.3072V30.1212H102.854V23.8358C102.856 22.8726 102.837 21.9096 102.795 20.9474H104.571L104.646 22.7028H104.702C104.918 22.0995 105.257 21.6128 105.722 21.2485C106.147 20.9302 106.664 20.7579 107.195 20.7571C107.384 20.7571 107.554 20.7705 107.705 20.7944L107.707 22.7391V22.7391ZM116.826 25.0997C116.831 25.4096 116.806 25.7193 116.751 26.0243H110.634C110.657 26.9307 110.954 27.6248 111.522 28.1029C112.037 28.5293 112.704 28.7435 113.523 28.7435C114.428 28.7435 115.255 28.6001 115.998 28.3104L116.317 29.7244C115.449 30.1031 114.424 30.2914 113.241 30.2914C111.817 30.2914 110.7 29.8726 109.888 29.037C109.077 28.2004 108.67 27.076 108.67 25.6677C108.67 24.2851 109.048 23.133 109.804 22.2142C110.596 21.2332 111.666 20.7428 113.013 20.7428C114.336 20.7428 115.337 21.2332 116.017 22.2142C116.555 22.9915 116.826 23.9553 116.826 25.0997V25.0997ZM114.882 24.571C114.896 23.9658 114.762 23.4447 114.486 23.004C114.133 22.436 113.59 22.153 112.862 22.153C112.195 22.153 111.652 22.4293 111.239 22.9839C110.899 23.4246 110.698 23.9543 110.635 24.5691L114.882 24.571Z" fill="white"/><path d="M43.2376 12.8991C42.6705 12.8991 42.1799 12.8714 41.7715 12.8245V6.67293C42.3426 6.58472 42.9198 6.54125 43.4977 6.5429C45.836 6.5429 46.9129 7.69309 46.9129 9.56802C46.9129 11.7307 45.6409 12.8991 43.2376 12.8991ZM43.58 7.33169C43.2644 7.33169 42.9956 7.35081 42.7728 7.3967V12.073C42.8933 12.0921 43.1247 12.1008 43.4499 12.1008C44.982 12.1008 45.8542 11.2288 45.8542 9.59575C45.8542 8.1396 45.0652 7.33169 43.58 7.33169V7.33169ZM50.2688 12.946C48.9509 12.946 48.0969 11.9621 48.0969 10.6264C48.0969 9.23434 48.9691 8.2419 50.3433 8.2419C51.6421 8.2419 52.5152 9.17889 52.5152 10.5528C52.5152 11.9621 51.6153 12.946 50.2688 12.946ZM50.307 8.97428C49.583 8.97428 49.1192 9.6512 49.1192 10.5977C49.1192 11.5261 49.5926 12.2031 50.2974 12.2031C51.0023 12.2031 51.4757 11.4793 51.4757 10.5786C51.4757 9.66076 51.0118 8.97428 50.307 8.97428ZM60.0303 8.33464L58.6197 12.8436H57.7006L57.1163 10.8855C56.971 10.4066 56.85 9.92057 56.7538 9.42939H56.7347C56.6611 9.92083 56.5214 10.4132 56.3732 10.8855L55.7516 12.8436H54.8229L53.4955 8.33464H54.5255L55.0362 10.4782C55.1567 10.9888 55.2581 11.4707 55.3422 11.9258H55.3614C55.435 11.5462 55.5555 11.072 55.7324 10.4878L56.3732 8.3356H57.1899L57.803 10.4419C57.9512 10.9525 58.0717 11.4535 58.1654 11.9267H58.1922C58.2572 11.463 58.3596 10.9706 58.4982 10.4419L59.0462 8.3356L60.0303 8.33464V8.33464ZM65.2234 12.8436H64.2211V10.2545C64.2211 9.45711 63.9151 9.05746 63.3116 9.05746C62.7177 9.05746 62.3093 9.56802 62.3093 10.1618V12.8436H61.3071V9.62348C61.3071 9.22478 61.2975 8.7974 61.2698 8.33369H62.1515L62.1984 9.02973H62.2261C62.4958 8.54785 63.0429 8.2419 63.6559 8.2419C64.6027 8.2419 65.2243 8.96567 65.2243 10.1436L65.2234 12.8436V12.8436ZM67.9872 12.8436H66.984V6.26562H67.9872V12.8436ZM71.6415 12.946C70.3246 12.946 69.4696 11.9621 69.4696 10.6264C69.4696 9.23434 70.3418 8.2419 71.7151 8.2419C73.0148 8.2419 73.887 9.17889 73.887 10.5528C73.888 11.9621 72.9871 12.946 71.6415 12.946ZM71.6788 8.97428C70.9548 8.97428 70.491 9.6512 70.491 10.5977C70.491 11.5261 70.9654 12.2031 71.6683 12.2031C72.3741 12.2031 72.8465 11.4793 72.8465 10.5786C72.8475 9.66076 72.3846 8.97428 71.6788 8.97428V8.97428ZM77.8387 12.8436L77.766 12.3245H77.7393C77.4332 12.7423 76.9866 12.946 76.4204 12.946C75.6123 12.946 75.0385 12.3799 75.0385 11.6189C75.0385 10.506 76.0035 9.93039 77.6742 9.93039V9.84721C77.6742 9.25346 77.3596 8.95611 76.738 8.95611C76.2932 8.95611 75.9031 9.06798 75.5597 9.29075L75.356 8.63199C75.773 8.37193 76.2932 8.2419 76.9044 8.2419C78.0826 8.2419 78.6775 8.86337 78.6775 10.1073V11.768C78.6775 12.2231 78.6975 12.5759 78.7425 12.8446L77.8387 12.8436V12.8436ZM77.701 10.5977C76.5878 10.5977 76.0293 10.8674 76.0293 11.507C76.0293 11.9803 76.3172 12.2117 76.7169 12.2117C77.2267 12.2117 77.701 11.8225 77.701 11.2938V10.5977V10.5977ZM83.5444 12.8436L83.4975 12.1199H83.4698C83.1819 12.6668 82.698 12.946 82.0218 12.946C80.9345 12.946 80.1292 11.9898 80.1292 10.6446C80.1292 9.23434 80.9641 8.24094 82.1041 8.24094C82.7076 8.24094 83.1351 8.4446 83.3761 8.85381H83.3961V6.26562H84.3994V11.6284C84.3994 12.0644 84.4099 12.4727 84.4367 12.8436H83.5444ZM83.3961 10.1904C83.3961 9.55942 82.9782 9.02113 82.3403 9.02113C81.5972 9.02113 81.143 9.67989 81.143 10.6073C81.143 11.5166 81.6144 12.139 82.3202 12.139C82.9505 12.139 83.3961 11.5911 83.3961 10.9419V10.1904ZM90.7601 12.946C89.4432 12.946 88.5892 11.9621 88.5892 10.6264C88.5892 9.23434 89.4614 8.2419 90.8347 8.2419C92.1344 8.2419 93.0066 9.17889 93.0066 10.5528C93.0076 11.9621 92.1076 12.946 90.7601 12.946ZM90.7974 8.97428C90.0744 8.97428 89.6106 9.6512 89.6106 10.5977C89.6106 11.5261 90.084 12.2031 90.7879 12.2031C91.4936 12.2031 91.9661 11.4793 91.9661 10.5786C91.968 9.66076 91.5042 8.97428 90.7974 8.97428ZM98.3967 12.8436H97.3934V10.2545C97.3934 9.45711 97.0874 9.05746 96.4839 9.05746C95.89 9.05746 95.4826 9.56802 95.4826 10.1618V12.8436H94.4794V9.62348C94.4794 9.22478 94.4698 8.7974 94.4421 8.33369H95.3239L95.3707 9.02973H95.3985C95.6672 8.54785 96.2152 8.24094 96.8273 8.24094C97.7741 8.24094 98.3967 8.96472 98.3967 10.1426V12.8436ZM105.14 9.08614H104.037V11.2756C104.037 11.833 104.23 12.1113 104.621 12.1113C104.798 12.1113 104.946 12.0921 105.065 12.0644L105.093 12.8255C104.899 12.9001 104.639 12.9373 104.316 12.9373C103.526 12.9373 103.053 12.5014 103.053 11.3598V9.08614H102.395V8.33464H103.053V7.50857L104.037 7.21122V8.33369H105.14V9.08614V9.08614ZM110.446 12.8436H109.445V10.2736C109.445 9.46667 109.139 9.05842 108.535 9.05842C108.016 9.05842 107.532 9.41122 107.532 10.1254V12.8436H106.531V6.26562H107.532V8.97428H107.552C107.868 8.48284 108.325 8.24094 108.908 8.24094C109.862 8.24094 110.446 8.98288 110.446 10.1618V12.8436V12.8436ZM115.882 10.8301H112.874C112.893 11.6839 113.458 12.1658 114.295 12.1658C114.74 12.1658 115.149 12.0912 115.511 11.9526L115.667 12.6486C115.24 12.8341 114.738 12.9268 114.154 12.9268C112.743 12.9268 111.908 12.0357 111.908 10.6542C111.908 9.27163 112.763 8.23234 114.041 8.23234C115.193 8.23234 115.916 9.08614 115.916 10.3759C115.923 10.5281 115.911 10.6806 115.882 10.8301V10.8301ZM114.963 10.1159C114.963 9.41983 114.612 8.92839 113.971 8.92839C113.395 8.92839 112.94 9.42939 112.875 10.1159H114.963V10.1159Z" fill="white"/><defs><linearGradient id="paint0_linear_3199_4841" x1="94.6405" y1="38.3353" x2="94.6405" y2="-99.5542" gradientUnits="userSpaceOnUse"><stop stop-color="#1A1A1A" stop-opacity="0.1"/><stop offset="0.123" stop-color="#212121" stop-opacity="0.151"/><stop offset="0.308" stop-color="#353535" stop-opacity="0.227"/><stop offset="0.532" stop-color="#575757" stop-opacity="0.318"/><stop offset="0.783" stop-color="#858585" stop-opacity="0.421"/><stop offset="1" stop-color="#B3B3B3" stop-opacity="0.51"/></linearGradient></defs></svg>