<svg xmlns="http://www.w3.org/2000/svg" width="118.559" height="36.574" viewBox="0 0 118.559 36.574"><g transform="translate(-0.676 -0.001)"><path d="M.677,30.531V28.091H2.449c1.079,0,1.678-.331,1.678-2.314V12.923c0-1.414-.379-1.847-2.025-1.847H.676V8.631H21.568v8.72H19.222c-.473-4.492-.852-6.276-5.092-6.276H8.555V17.95h1.677c1.9,0,2.755-.995,2.755-3.671v-.431h2.346V24.882H12.987v-.789c0-2.677-.852-3.7-2.755-3.7H8.555v7.7h6.332c2.914,0,4.05-1.888,4.334-6.805h2.346v9.246Z" transform="translate(0 -4.091)" fill="#fff"/><path d="M43.647,30.531V28.091h2.025c.884,0,1.488-.331,1.488-1.457V12.5c0-.989-.416-1.42-1.677-1.42H43.648V8.631H55.229v2.445H53.457c-1.388,0-1.867.332-1.867,1.488V28.122h5.16c3.26,0,4.049-1.883,4.339-7h2.34v9.414H43.647Z" transform="translate(-20.371 -4.091)" fill="#fff"/><path d="M93.107,30.531V28.091h2.025c.732,0,1.362-.263,1.362-1.126V12.2c0-.858-.631-1.121-1.362-1.121H93.107V8.631h12.407c4.748,0,7.468,2.283,7.468,6.012,0,4.065-2.845,5.98-7.089,5.98h-4.964v6.343c0,.863.789,1.126,1.515,1.126h2.025v2.441H93.107Zm7.82-12.354H103.8c2.977,0,4.56-.956,4.56-3.5s-1.268-3.6-4.56-3.6h-2.877Z" transform="translate(-43.817 -4.091)" fill="#fff"/><path d="M124.156,30.531h9.877V28.091h-2.467c-.6,0-1.015-.137-1.015-.594a2.071,2.071,0,0,1,.126-.694l1.041-3.308H138.9l1.046,3.308a2.742,2.742,0,0,1,.125.794c0,.326-.252.494-.977.494h-2.5v2.441h21.421V28.091h-1.836c-1.073,0-1.552-.562-1.552-1.62V12.659c0-1.252.984-1.584,1.993-1.584h1.394V8.631h-11.2v2.445h1.773c1.236,0,1.613.657,1.613,1.488V26.9c0,.857-.5,1.189-1.8,1.189H147.6c-1.677,0-2.75-.231-3.323-1.788L137.957,8.631h-4.435L127.48,26.3c-.537,1.557-1.646,1.788-3.323,1.788v2.44Zm13.833-9.478H132.64l2.535-7.964h.056Z" transform="translate(-58.536 -4.091)" fill="#fff"/><path d="M206.939,8.032h1.836v8.326H206.5c-.757-3.6-2.75-6.18-6.517-6.18-2.946,0-4.151.795-4.151,2.977,0,4.954,14.117,1.257,14.117,10.471,0,5.254-3.924,6.969-8.358,6.969a10.488,10.488,0,0,1-6.58-2.609l-.694,1.946h-2.156V20.98H194.5c.442,4.428,3.035,6.8,7.531,6.8,2.782,0,4.113-1.357,4.113-2.94,0-5.649-14.116-1.389-14.116-10.835,0-4.659,4.018-6.643,7.852-6.643A10.306,10.306,0,0,1,205.9,9.68Z" transform="translate(-90.712 -3.492)" fill="#fff"/><path d="M178.256,0V2.757H166.717Z" transform="translate(-78.712 0)" fill="#016ca2"/><path d="M35.5,64.784h3.924l.153-1.474h-.247c-.105.537-.289,1.136-1.084,1.136H37.192c-.137,0-.215-.074-.215-.188V62.211h.957c.559,0,.621.415.668.742h.236V61.159H38.6c-.015.359-.147.711-.668.711h-.952V60h1.279c.663,0,.768.4.888.989h.231l.011-1.315-.021-.021c-.069,0-.678.016-.974.016H35.5v.194c.368.053.626.143.626.537v3.676c0,.373-.248.448-.626.5v.206Z" transform="translate(-16.509 -28.277)" fill="#fff"/><path d="M44.566,64.8H48.49l.153-1.474h-.248c-.1.537-.29,1.136-1.084,1.136H46.253c-.137,0-.216-.074-.216-.188V60.4c0-.406.295-.468.625-.526v-.194h-2.1v.194c.368.053.625.143.625.537v3.676c0,.373-.242.448-.625.5v.2Z" transform="translate(-20.806 -28.292)" fill="#fff"/><path d="M58.584,62.153V59.992h.41c.715,0,1.163.338,1.163,1.063a.971.971,0,0,1-1.079,1.1ZM57.117,64.8h2.214v-.206c-.484-.042-.747-.143-.747-.5v-1.6h.583c.978,0,1.852-.468,1.852-1.473,0-.846-.673-1.33-1.651-1.33H57.117v.194c.362.053.625.143.625.537v3.676c0,.373-.248.448-.625.5Z" transform="translate(-26.756 -28.291)" fill="#fff"/><path d="M65.053,64.784h3.924l.153-1.474h-.248c-.1.537-.289,1.136-1.083,1.136H66.74c-.137,0-.215-.074-.215-.188V62.211h.956c.559,0,.622.415.668.742h.242V61.159h-.248c-.015.359-.147.711-.668.711h-.952V60H67.8c.663,0,.768.4.888.989h.231l.011-1.315-.021-.021c-.063,0-.678.016-.974.016H65.05v.194c.368.053.625.143.625.537v3.676c0,.373-.247.448-.625.5v.206Z" transform="translate(-30.517 -28.277)" fill="#fff"/><path d="M75.59,61.958v-1.94h.726a.89.89,0,0,1,.92,1c0,.8-.61.936-1.109.936ZM74.117,64.8h2.1v-.206c-.41-.057-.626-.146-.626-.521V62.263h.684c.338.006.547.1.647.553l.415,1.983h1.289v-.206c-.263-.032-.452-.068-.521-.4L77.8,63.031a1.164,1.164,0,0,0-.989-.9V62.1a1.218,1.218,0,0,0,1.231-1.172c0-.815-.615-1.246-1.7-1.246H74.117v.194c.368.053.625.143.625.537v3.676c0,.373-.242.448-.625.5Z" transform="translate(-34.815 -28.291)" fill="#fff"/><path d="M88.076,57.463l1.431-.768-.452-.594L87.924,57.3Zm-4.9,5.638h2.1V62.9c-.4-.057-.625-.146-.625-.521V58.7c0-.406.3-.468.625-.526v-.194h-2.1v.194c.368.053.631.143.631.537v3.676c0,.373-.247.448-.631.5Z" transform="translate(-39.11 -26.594)" fill="#fff"/><path d="M90.2,64.448c-1.031,0-1.446-.673-1.446-2.23,0-1.529.368-2.318,1.351-2.318.968,0,1.431.783,1.431,2.33C91.534,63.854,91.071,64.448,90.2,64.448Zm-.015.358c1.346,0,2.246-1.057,2.246-2.687a2.254,2.254,0,0,0-2.319-2.556c-1.393,0-2.251,1.063-2.251,2.635C87.858,63.864,88.742,64.806,90.183,64.806Z" transform="translate(-41.329 -28.236)" fill="#fff"/><path d="M99.629,64.468c-.1,0-.195-.015-.195-.146V59.993h.583c1.246,0,1.636,1.22,1.636,2.221,0,1.278-.469,2.313-1.736,2.256l-.288,0Zm-1.672.331h2.014a2.507,2.507,0,0,0,2.577-2.624,2.336,2.336,0,0,0-2.6-2.492H97.957v.194c.368.053.626.143.626.537v3.676c0,.373-.248.448-.626.5Z" transform="translate(-46.116 -28.292)" fill="#fff"/><path d="M108.136,64.8h2.093v-.206c-.406-.057-.626-.146-.626-.521V60.4c0-.406.3-.468.626-.526v-.194h-2.093v.194c.362.053.625.143.625.537v3.676c0,.373-.247.448-.625.5Z" transform="translate(-50.942 -28.292)" fill="#fff"/><path d="M115.428,64.806c.468-.015,1.019-.11,1.236-.078l.063-1.441h-.236c-.1.962-.562,1.162-1.147,1.162-1.258,0-1.647-1-1.647-2.33,0-1.2.58-2.229,1.542-2.229.741,0,1.052.252,1.19,1.036h.226l.011-1.2a5.866,5.866,0,0,0-1.41-.164,2.439,2.439,0,0,0-2.445,2.755,2.2,2.2,0,0,0,1.33,2.3A3.577,3.577,0,0,0,115.428,64.806Z" transform="translate(-53.158 -28.236)" fill="#fff"/><path d="M124.214,64.448c-1.025,0-1.441-.673-1.441-2.23,0-1.529.362-2.318,1.352-2.318.962,0,1.426.783,1.426,2.33C125.55,63.854,125.086,64.448,124.214,64.448Zm-.016.358c1.347,0,2.246-1.057,2.246-2.687a2.252,2.252,0,0,0-2.314-2.556c-1.393,0-2.251,1.063-2.251,2.635C121.878,63.864,122.757,64.806,124.2,64.806Z" transform="translate(-57.457 -28.236)" fill="#fff"/><path d="M138.126,64.809a4.979,4.979,0,0,0,1.473-.2V63.1c0-.347.164-.394.484-.448v-.205H138.11v.206c.431.042.657.138.657.473v1.321c-.053.005-.252.026-.373.026A1.709,1.709,0,0,1,137,63.89a2.467,2.467,0,0,1-.58-1.778c0-1.106.559-2.221,1.626-2.221.741,0,1.12.206,1.282,1.031h.227l.006-1.2a6.172,6.172,0,0,0-1.419-.164,2.518,2.518,0,0,0-2.6,2.693A2.327,2.327,0,0,0,138.126,64.809Z" transform="translate(-63.933 -28.234)" fill="#fff"/><path d="M145.626,64.8h3.924l.153-1.474h-.248c-.1.537-.289,1.136-1.084,1.136h-1.058c-.137,0-.216-.074-.216-.188V60.4c0-.406.3-.468.626-.526v-.194h-2.1v.194c.368.053.625.143.625.537v3.676c0,.373-.248.448-.625.5l0,.2Z" transform="translate(-68.713 -28.292)" fill="#fff"/><path d="M157.108,64.448c-1.031,0-1.446-.673-1.446-2.23,0-1.529.368-2.318,1.352-2.318.968,0,1.431.783,1.431,2.33C158.444,63.854,157.981,64.448,157.108,64.448Zm-.016.358c1.347,0,2.246-1.057,2.246-2.687a2.254,2.254,0,0,0-2.314-2.556c-1.393,0-2.256,1.063-2.256,2.635C154.767,63.864,155.652,64.806,157.092,64.806Z" transform="translate(-73.048 -28.236)" fill="#fff"/><path d="M166.345,61.879V59.99h.58c.526,0,1.083.126,1.083.968,0,.563-.437.92-1.1.92Zm.126,2.593c-.068,0-.126-.021-.126-.117V62.183h.421c.909,0,1.3.473,1.3,1.169a1.058,1.058,0,0,1-1.163,1.12Zm-1.6.326h2.251c.894,0,1.846-.479,1.846-1.488,0-.625-.537-1.106-1.357-1.231v-.042c.646-.126,1.252-.49,1.252-1.169,0-.962-.931-1.189-1.662-1.189h-2.33v.194c.368.053.625.143.625.537v3.676c0,.373-.248.448-.625.5Z" transform="translate(-77.835 -28.291)" fill="#fff"/><path d="M175,62.495l.625-2.172h.027l.731,2.172Zm-1.431,2.3h1.521v-.206c-.515-.063-.568-.185-.568-.3a1.375,1.375,0,0,1,.079-.394l.295-1.041h1.6l.442,1.283a.628.628,0,0,1,.036.2c0,.125-.252.206-.541.252v.206h1.889v-.206a.491.491,0,0,1-.449-.331l-1.62-4.587h-.83l.021.116-1.384,4.407a.522.522,0,0,1-.493.394v.205Z" transform="translate(-81.96 -28.286)" fill="#fff"/><path d="M182.986,64.8h3.924l.152-1.474h-.248c-.1.537-.284,1.136-1.084,1.136h-1.052c-.143,0-.221-.074-.221-.188V60.4c0-.406.3-.468.625-.526v-.194h-2.1v.194c.368.053.631.143.631.537v3.676c0,.373-.248.448-.631.5l0,.2Z" transform="translate(-86.424 -28.292)" fill="#fff"/></g></svg>