<svg xmlns="http://www.w3.org/2000/svg" width="119.027" height="32.944" viewBox="0 0 119.027 32.944"><g transform="translate(-0.51 -0.459)"><g transform="translate(0.51 0.459)"><path d="M17.457,26.147c-1.141-2.247-2.481-4.516-5.093-4.516a3.489,3.489,0,0,0-1.456.292l-.887-1.776A7.778,7.778,0,0,1,15.1,18.484c3.494,0,5.287,1.683,6.711,3.831a17.966,17.966,0,0,0,1.247-7.381c0-7.667-2.4-11.6-8-11.6-5.519,0-7.9,3.937-7.9,11.6,0,7.627,2.385,11.523,7.9,11.523a8.529,8.529,0,0,0,2.4-.309Zm1.368,2.676a14.672,14.672,0,0,1-3.77.5A14.526,14.526,0,0,1,.51,14.934a14.573,14.573,0,0,1,29.144,0,14.012,14.012,0,0,1-5.509,11.25c1.055,1.58,2.14,2.629,3.652,2.629a2.389,2.389,0,0,0,2.426-2.275h2.148c.126,1.331-.54,6.864-6.545,6.864-3.637,0-5.56-2.108-7-4.58Z" transform="translate(-0.51 -0.459)" fill="#b92b27" fill-rule="evenodd"/><path d="M55.326,26.234V16.375c0-1.123-.415-1.622-1.7-1.622H52.249v-2.62h8.97V26.109c0,2.356,1.275,3.4,3.217,3.4a4.443,4.443,0,0,0,4.048-2.315V16.375c0-1.123-.416-1.622-1.705-1.622H65.324v-2.62h9.054v14.64c0,1.458.54,2.123,2.2,2.123h.292v2.7l-8.1,1.289V30.1H68.61a8.5,8.5,0,0,1-6.918,3.2c-3.536,0-6.365-1.788-6.365-7.071" transform="translate(-21.457 -5.185)" fill="#b92b27" fill-rule="evenodd"/><path d="M105.953,30.316c3.189,0,4.4-2.775,4.465-8.361.062-5.465-1.275-8.11-4.465-8.11-2.786,0-4.534,2.647-4.534,8.11,0,5.588,1.719,8.361,4.534,8.361Zm0,2.62A10.835,10.835,0,0,1,94.985,21.955a10.627,10.627,0,0,1,10.968-10.732c6.142,0,11.065,4.367,11.065,10.732a10.694,10.694,0,0,1-11.065,10.981Z" transform="translate(-38.76 -4.817)" fill="#b92b27" fill-rule="evenodd"/><path d="M132.319,32.6v-2.62h.874c2.163,0,2.371-.624,2.371-2.5v-11.4c0-1.123-.582-1.622-1.913-1.622h-1.165v-2.62h8.221l.416,4.284h.167a6.129,6.129,0,0,1,5.67-4.7,3.092,3.092,0,0,1,3.383,3.273c0,1.525-.733,3.148-2.786,3.148-1.845,0-2.2-1.249-3.73-1.249-1.358,0-2.413,1.29-2.413,3.189v7.7c0,1.872.458,2.5,2.58,2.5H145.2V32.6H132.319" transform="translate(-53.875 -4.902)" fill="#b92b27" fill-rule="evenodd"/><path d="M172.516,29.47c2.621,0,3.7-2.482,3.7-4.976V21.165c-1.913,1.982-6.364,2.051-6.364,5.587a2.473,2.473,0,0,0,2.663,2.718Zm3.827-.014a6.832,6.832,0,0,1-6.406,3.48c-3.6,0-5.934-1.915-5.934-5.283,0-6.779,9.442-4.977,12.215-9.469V17.7c0-3.452-1.359-3.992-2.856-3.992-4.2,0-2.288,4.518-6.157,4.518a2.275,2.275,0,0,1-2.579-2.383c0-2.551,3.051-4.618,8.778-4.618,5.42,0,8.748,1.5,8.748,6.892v8.61c0,1.331.486,2.053,1.65,2.053a2.128,2.128,0,0,0,1.233-.361l.694,1.69a5.71,5.71,0,0,1-4.951,2.413c-2.495,0-4.062-1.165-4.27-3.064Z" transform="translate(-66.703 -4.817)" fill="#b92b27" fill-rule="evenodd"/></g></g></svg>